<svg width="31" height="31" viewBox="0 0 31 31" fill="none" xmlns="http://www.w3.org/2000/svg">
<path d="M16.6509 20.6457L20.5581 21.3971L23.764 4.91678C23.9643 3.81475 23.2631 2.71273 22.2111 2.51236C21.1091 2.31199 20.0572 3.06337 19.8568 4.1654L16.6509 20.6457Z" fill="#B37C49"/>
<path d="M22.2614 2.51249C22.1111 2.4624 22.0109 2.4624 21.8606 2.4624C22.7623 2.81305 23.2632 3.7648 23.0628 4.76664L19.8569 21.247L20.5582 21.3973L23.7641 4.91692C24.0146 3.7648 23.3133 2.71286 22.2614 2.51249Z" fill="#784E34"/>
<path d="M12.6436 21.1468H17.3522V2.96335C17.3522 1.61086 16.3003 0.45874 14.9979 0.45874C13.7456 0.45874 12.6436 1.56077 12.6436 2.96335V21.1468Z" fill="#B37C49"/>
<path d="M15.0479 0.45874C14.9477 0.45874 14.7975 0.45874 14.6973 0.508832C15.8494 0.709201 16.701 1.71105 16.701 2.96335V21.1969H17.4022V2.96335C17.4022 1.56077 16.3503 0.45874 15.0479 0.45874Z" fill="#784E34"/>
<path d="M10.1393 21.0966L14.1467 20.0447L9.78868 3.46414C9.48812 2.31201 8.336 1.61072 7.23397 1.86118C6.13194 2.16174 5.48074 3.31386 5.7813 4.46598L10.1393 21.0966Z" fill="#B37C49"/>
<path d="M7.23366 1.86118L6.93311 2.01146C7.93495 1.96137 8.83661 2.61257 9.13716 3.6645L13.4952 20.245L14.1965 20.0447L9.78836 3.46414C9.48781 2.31201 8.33569 1.61072 7.23366 1.86118Z" fill="#784E34"/>
<path d="M1.62332 6.16905C0.671563 6.61988 0.37101 7.8221 0.871932 8.82394L7.48411 21.9982L10.8403 20.2951L4.22811 7.12081C3.72719 6.11896 2.57507 5.71822 1.62332 6.16905Z" fill="#B37C49"/>
<path d="M1.62331 6.16905C1.52312 6.21915 1.42294 6.26924 1.32275 6.36942C2.17432 6.11896 3.12607 6.56979 3.5769 7.47145L10.1891 20.6457L10.8403 20.3452L4.2281 7.12081C3.72718 6.11896 2.57506 5.71822 1.62331 6.16905Z" fill="#784E34"/>
<path d="M30.5265 14.1337C29.725 12.5808 27.2204 12.681 24.6657 15.4862C22.8624 17.4398 22.5118 18.091 20.7084 18.0409V15.9871C20.7084 15.9871 16.8513 13.1318 9.18722 14.4342C9.18722 14.4342 4.8292 15.0353 4.8292 17.3396C4.8292 17.3396 4.07782 22.8998 5.63067 26.4063C7.93492 31.6159 19.7567 32.9684 23.4635 24.102C24.2149 22.3488 25.7177 21.0464 27.0701 19.3934C28.623 17.3897 31.3781 15.7867 30.5265 14.1337Z" fill="#B37C49"/>
<path d="M30.5265 14.1337C30.3762 13.8331 30.1758 13.6327 29.9254 13.4324C29.9755 13.4825 30.0256 13.5326 30.0256 13.6327C30.8771 15.3359 28.1221 16.8887 26.469 18.8924C25.1165 20.5455 23.6138 21.8479 22.8624 23.6011C19.6565 31.2652 10.3393 31.2652 6.43213 27.7587C9.98868 31.7661 20.0071 32.1669 23.3633 24.102C24.1147 22.3488 25.6175 21.0464 26.9699 19.3933C28.623 17.3897 31.3781 15.7867 30.5265 14.1337Z" fill="#784E34"/>
<path d="M21.2094 18.041C17.9534 16.8388 12.1427 19.0428 12.9442 24.9036C12.9442 19.4436 17.9033 18.0911 20.6083 18.0911C21.009 18.041 21.2094 18.041 21.2094 18.041Z" fill="#784E34"/>
</svg>
