<svg width="10" height="14" viewBox="0 0 10 14" fill="none" xmlns="http://www.w3.org/2000/svg">
<path d="M0 0H5.41639C6.15048 3.0761e-05 6.86842 0.215533 7.48118 0.619783C8.09394 1.02403 8.57456 1.59925 8.86346 2.27411C9.15235 2.94897 9.23681 3.69378 9.10635 4.41618C8.9759 5.13859 8.63627 5.80682 8.12958 6.33801C8.84354 6.75153 9.40118 7.38897 9.7161 8.15156C10.031 8.91416 10.0856 9.75933 9.87149 10.5561C9.65734 11.3529 9.18639 12.0568 8.5316 12.5588C7.87681 13.0608 7.07474 13.3328 6.24968 13.3326H0V11.6661H0.833291V1.66658H0V0ZM2.49987 5.83303H5.41639C5.96889 5.83303 6.49877 5.61355 6.88945 5.22287C7.28013 4.83219 7.49962 4.30231 7.49962 3.74981C7.49962 3.1973 7.28013 2.66742 6.88945 2.27674C6.49877 1.88606 5.96889 1.66658 5.41639 1.66658H2.49987V5.83303ZM2.49987 7.49962V11.6661H6.24968C6.80219 11.6661 7.33206 11.4466 7.72274 11.0559C8.11342 10.6652 8.33291 10.1353 8.33291 9.58284C8.33291 9.03034 8.11342 8.50046 7.72274 8.10978C7.33206 7.7191 6.80219 7.49962 6.24968 7.49962H2.49987Z" fill="#676767"/>
</svg>
