<svg width="12" height="12" viewBox="0 0 12 12" fill="none" xmlns="http://www.w3.org/2000/svg">
<path d="M2.25075 4.57716L0.878754 5.94916C0.316097 6.51181 0 7.27494 0 8.07066C0 8.86637 0.316097 9.6295 0.878754 10.1922C1.44141 10.7548 2.20454 11.0709 3.00025 11.0709C3.79597 11.0709 4.5591 10.7548 5.12175 10.1922L6.94975 8.36316C7.28905 8.02381 7.54199 7.60803 7.68734 7.1507C7.8327 6.69338 7.86623 6.20786 7.78511 5.73489C7.704 5.26193 7.51061 4.81532 7.22118 4.43256C6.93176 4.0498 6.55473 3.74206 6.12175 3.53516L5.53575 4.12116C5.47626 4.18075 5.42452 4.24762 5.38175 4.32016C5.71628 4.41633 6.01992 4.59814 6.26265 4.84761C6.50538 5.09709 6.67879 5.4056 6.76575 5.74264C6.85272 6.07968 6.85021 6.43357 6.75849 6.76935C6.66676 7.10512 6.48899 7.41114 6.24275 7.65716L4.41575 9.48516C4.04047 9.86044 3.53148 10.0713 3.00075 10.0713C2.47003 10.0713 1.96104 9.86044 1.58575 9.48516C1.21047 9.10987 0.999642 8.60088 0.999642 8.07016C0.999642 7.53943 1.21047 7.03044 1.58575 6.65516L2.37875 5.86316C2.26687 5.44388 2.22364 5.00925 2.25075 4.57616V4.57716Z" fill="#676767"/>
<path d="M4.12169 2.70675C3.7824 3.0461 3.52946 3.46188 3.3841 3.91921C3.23875 4.37653 3.20522 4.86205 3.28633 5.33502C3.36745 5.80798 3.56083 6.25459 3.85026 6.63735C4.13969 7.02011 4.51672 7.32785 4.94969 7.53475L5.72469 6.75875C5.38564 6.66781 5.0765 6.48923 4.82833 6.24096C4.58016 5.99268 4.40171 5.68347 4.3109 5.34438C4.2201 5.00529 4.22015 4.64827 4.31104 4.3092C4.40193 3.97013 4.58046 3.66096 4.82869 3.41275L6.65569 1.58475C7.03097 1.20947 7.53997 0.998642 8.07069 0.998642C8.60142 0.998642 9.11041 1.20947 9.48569 1.58475C9.86097 1.96004 10.0718 2.46903 10.0718 2.99975C10.0718 3.53048 9.86097 4.03947 9.48569 4.41475L8.69269 5.20675C8.80469 5.62675 8.84769 6.06175 8.82069 6.49375L10.1927 5.12175C10.7553 4.5591 11.0714 3.79597 11.0714 3.00025C11.0714 2.20454 10.7553 1.44141 10.1927 0.878754C9.63004 0.316097 8.86691 0 8.07119 0C7.27548 0 6.51235 0.316097 5.94969 0.878754L4.12169 2.70675Z" fill="#676767"/>
</svg>
