<svg width="10" height="13" viewBox="0 0 10 13" fill="none" xmlns="http://www.w3.org/2000/svg">
<path d="M9.26357 0.0030564H4.78911C4.69584 -0.00586732 4.60173 0.0048019 4.51282 0.0343799C4.42391 0.0639579 4.34217 0.111792 4.27283 0.174813C4.20349 0.237835 4.14809 0.314652 4.11018 0.40034C4.07227 0.486027 4.05268 0.578692 4.05268 0.672391C4.05268 0.766091 4.07227 0.858755 4.11018 0.944443C4.14809 1.03013 4.20349 1.10695 4.27283 1.16997C4.34217 1.23299 4.42391 1.28082 4.51282 1.3104C4.60173 1.33998 4.69584 1.35065 4.78911 1.34173H6.09111L2.35017 10.7308H0.736428C0.643155 10.7218 0.549046 10.7325 0.460137 10.7621C0.371229 10.7917 0.289484 10.8395 0.220145 10.9025C0.150807 10.9655 0.0954054 11.0423 0.0574944 11.128C0.0195834 11.2137 0 11.3064 0 11.4001C0 11.4938 0.0195834 11.5865 0.0574944 11.6721C0.0954054 11.7578 0.150807 11.8346 0.220145 11.8977C0.289484 11.9607 0.371229 12.0085 0.460137 12.0381C0.549046 12.0677 0.643155 12.0783 0.736428 12.0694H5.217C5.31027 12.0783 5.40438 12.0677 5.49329 12.0381C5.5822 12.0085 5.66394 11.9607 5.73328 11.8977C5.80262 11.8346 5.85802 11.7578 5.89593 11.6721C5.93384 11.5865 5.95343 11.4938 5.95343 11.4001C5.95343 11.3064 5.93384 11.2137 5.89593 11.128C5.85802 11.0423 5.80262 10.9655 5.73328 10.9025C5.66394 10.8395 5.5822 10.7917 5.49329 10.7621C5.40438 10.7325 5.31027 10.7218 5.217 10.7308H3.8172L7.56426 1.34173H9.26357C9.35684 1.35065 9.45095 1.33998 9.53986 1.3104C9.62877 1.28082 9.71052 1.23299 9.77985 1.16997C9.84919 1.10695 9.90459 1.03013 9.94251 0.944443C9.98042 0.858755 10 0.766091 10 0.672391C10 0.578692 9.98042 0.486027 9.94251 0.40034C9.90459 0.314652 9.84919 0.237835 9.77985 0.174813C9.71052 0.111792 9.62877 0.0639579 9.53986 0.0343799C9.45095 0.0048019 9.35684 -0.00586732 9.26357 0.0030564Z" fill="#676767"/>
</svg>
