<svg width="13" height="13" viewBox="0 0 13 13" fill="none" xmlns="http://www.w3.org/2000/svg">
<path d="M11.9167 0H1.08333C0.796016 0 0.520465 0.114137 0.317301 0.317301C0.114137 0.520465 0 0.796016 0 1.08333V11.9167C0 12.204 0.114137 12.4795 0.317301 12.6827C0.520465 12.8859 0.796016 13 1.08333 13H11.9167C12.204 13 12.4795 12.8859 12.6827 12.6827C12.8859 12.4795 13 12.204 13 11.9167V1.08333C13 0.796016 12.8859 0.520465 12.6827 0.317301C12.4795 0.114137 12.204 0 11.9167 0ZM11.9167 11.9167H1.08333V8.66667L3.79167 5.95833L6.81958 8.98625C7.02256 9.18802 7.29713 9.30128 7.58333 9.30128C7.86953 9.30128 8.14411 9.18802 8.34708 8.98625L9.20833 8.125L11.9167 10.8333V11.9167ZM11.9167 9.30042L9.97208 7.35583C9.76911 7.15406 9.49453 7.04081 9.20833 7.04081C8.92213 7.04081 8.64756 7.15406 8.44458 7.35583L7.58333 8.21708L4.55542 5.18917C4.35244 4.98739 4.07787 4.87414 3.79167 4.87414C3.50547 4.87414 3.23089 4.98739 3.02792 5.18917L1.08333 7.13375V1.08333H11.9167V9.30042Z" fill="#676767"/>
</svg>
