<svg width="15" height="11" viewBox="0 0 15 11" fill="none" xmlns="http://www.w3.org/2000/svg">
<path fill-rule="evenodd" clip-rule="evenodd" d="M4.10693 9.41049C4.10693 9.27435 4.16102 9.14377 4.25729 9.0475C4.35356 8.95123 4.48413 8.89715 4.62028 8.89715H13.8605C13.9967 8.89715 14.1272 8.95123 14.2235 9.0475C14.3198 9.14377 14.3739 9.27435 14.3739 9.41049C14.3739 9.54664 14.3198 9.67721 14.2235 9.77349C14.1272 9.86976 13.9967 9.92384 13.8605 9.92384H4.62028C4.48413 9.92384 4.35356 9.86976 4.25729 9.77349C4.16102 9.67721 4.10693 9.54664 4.10693 9.41049ZM4.10693 5.30372C4.10693 5.16757 4.16102 5.037 4.25729 4.94073C4.35356 4.84445 4.48413 4.79037 4.62028 4.79037H13.8605C13.9967 4.79037 14.1272 4.84445 14.2235 4.94073C14.3198 5.037 14.3739 5.16757 14.3739 5.30372C14.3739 5.43987 14.3198 5.57044 14.2235 5.66671C14.1272 5.76298 13.9967 5.81706 13.8605 5.81706H4.62028C4.48413 5.81706 4.35356 5.76298 4.25729 5.66671C4.16102 5.57044 4.10693 5.43987 4.10693 5.30372ZM4.10693 1.19694C4.10693 1.06079 4.16102 0.930221 4.25729 0.83395C4.35356 0.737678 4.48413 0.683594 4.62028 0.683594H13.8605C13.9967 0.683594 14.1272 0.737678 14.2235 0.83395C14.3198 0.930221 14.3739 1.06079 14.3739 1.19694C14.3739 1.33309 14.3198 1.46366 14.2235 1.55993C14.1272 1.6562 13.9967 1.71029 13.8605 1.71029H4.62028C4.48413 1.71029 4.35356 1.6562 4.25729 1.55993C4.16102 1.46366 4.10693 1.33309 4.10693 1.19694Z" fill="#676767"/>
<path d="M0.732033 9.78542V9.29877H1.02669C1.24949 9.29877 1.39938 9.15811 1.39938 8.9733C1.39938 8.78337 1.23717 8.65503 1.02875 8.65503C0.799795 8.65503 0.651951 8.81109 0.64579 8.9733H0.0400411C0.0564682 8.49384 0.422998 8.1653 1.05236 8.1653C1.65606 8.16324 2.03183 8.46406 2.03491 8.88706C2.03685 9.03214 1.98709 9.17318 1.89454 9.28492C1.80199 9.39666 1.67268 9.47182 1.52977 9.49692V9.5308C1.6918 9.54288 1.84293 9.61696 1.95173 9.73762C2.06053 9.85828 2.11864 10.0162 2.11396 10.1786C2.11704 10.7259 1.59856 11 1.03491 11C0.361396 11 0.00821355 10.6201 0 10.1848H0.597536C0.605749 10.3676 0.788501 10.499 1.0308 10.5021C1.29158 10.5021 1.46612 10.3532 1.46407 10.1427C1.46201 9.9425 1.30493 9.78542 1.03901 9.78542H0.731006H0.732033ZM0.727926 4.96098H0.107803V4.92505C0.107803 4.50616 0.410678 4.05852 1.09138 4.05852C1.68994 4.05852 2.077 4.39322 2.077 4.8347C2.077 5.23409 1.81314 5.46817 1.5883 5.70534L1.03696 6.29261V6.32341H2.1191V6.84394H0.146817V6.4384L1.12936 5.42197C1.27105 5.27618 1.43018 5.10986 1.43018 4.90041C1.43018 4.7156 1.27926 4.57187 1.07906 4.57187C1.03284 4.57017 0.98676 4.57796 0.943664 4.59474C0.900568 4.61153 0.861364 4.63696 0.828469 4.66947C0.795574 4.70198 0.769683 4.74088 0.752391 4.78378C0.7351 4.82667 0.726774 4.87265 0.727926 4.91889V4.96098ZM1.60575 2.73717H0.953799V0.605749H0.921971L0.308008 1.03696V0.454825L0.953799 0H1.60575V2.73717Z" fill="#676767"/>
</svg>
