<svg width="14" height="11" viewBox="0 0 14 11" fill="none" xmlns="http://www.w3.org/2000/svg">
<path d="M13.8627 0.323529H3.84314C3.76765 0.323529 3.70588 0.381765 3.70588 0.452941V1.35882C3.70588 1.43 3.76765 1.48824 3.84314 1.48824H13.8627C13.9382 1.48824 14 1.43 14 1.35882V0.452941C14 0.381765 13.9382 0.323529 13.8627 0.323529ZM13.8627 4.91765H3.84314C3.76765 4.91765 3.70588 4.97588 3.70588 5.04706V5.95294C3.70588 6.02412 3.76765 6.08235 3.84314 6.08235H13.8627C13.9382 6.08235 14 6.02412 14 5.95294V5.04706C14 4.97588 13.9382 4.91765 13.8627 4.91765ZM13.8627 9.51177H3.84314C3.76765 9.51177 3.70588 9.57 3.70588 9.64118V10.5471C3.70588 10.6182 3.76765 10.6765 3.84314 10.6765H13.8627C13.9382 10.6765 14 10.6182 14 10.5471V9.64118C14 9.57 13.9382 9.51177 13.8627 9.51177ZM0 0.905882C-1.88011e-09 1.02484 0.0248515 1.14264 0.0731354 1.25255C0.121419 1.36246 0.19219 1.46232 0.281407 1.54644C0.370624 1.63056 0.47654 1.69728 0.593108 1.74281C0.709676 1.78833 0.834612 1.81176 0.960784 1.81176C1.08696 1.81176 1.21189 1.78833 1.32846 1.74281C1.44503 1.69728 1.55094 1.63056 1.64016 1.54644C1.72938 1.46232 1.80015 1.36246 1.84843 1.25255C1.89672 1.14264 1.92157 1.02484 1.92157 0.905882C1.92157 0.78692 1.89672 0.669123 1.84843 0.559216C1.80015 0.44931 1.72938 0.349446 1.64016 0.265327C1.55094 0.181208 1.44503 0.114481 1.32846 0.0689561C1.21189 0.0234313 1.08696 0 0.960784 0C0.834612 0 0.709676 0.0234313 0.593108 0.0689561C0.47654 0.114481 0.370624 0.181208 0.281407 0.265327C0.19219 0.349446 0.121419 0.44931 0.0731354 0.559216C0.0248515 0.669123 -1.88011e-09 0.78692 0 0.905882ZM0 5.5C-1.88011e-09 5.61896 0.0248515 5.73676 0.0731354 5.84667C0.121419 5.95657 0.19219 6.05644 0.281407 6.14056C0.370624 6.22467 0.47654 6.2914 0.593108 6.33693C0.709676 6.38245 0.834612 6.40588 0.960784 6.40588C1.08696 6.40588 1.21189 6.38245 1.32846 6.33693C1.44503 6.2914 1.55094 6.22467 1.64016 6.14056C1.72938 6.05644 1.80015 5.95657 1.84843 5.84667C1.89672 5.73676 1.92157 5.61896 1.92157 5.5C1.92157 5.38104 1.89672 5.26324 1.84843 5.15333C1.80015 5.04343 1.72938 4.94356 1.64016 4.85944C1.55094 4.77533 1.44503 4.7086 1.32846 4.66307C1.21189 4.61755 1.08696 4.59412 0.960784 4.59412C0.834612 4.59412 0.709676 4.61755 0.593108 4.66307C0.47654 4.7086 0.370624 4.77533 0.281407 4.85944C0.19219 4.94356 0.121419 5.04343 0.0731354 5.15333C0.0248515 5.26324 -1.88011e-09 5.38104 0 5.5ZM0 10.0941C-1.88011e-09 10.2131 0.0248515 10.3309 0.0731354 10.4408C0.121419 10.5507 0.19219 10.6506 0.281407 10.7347C0.370624 10.8188 0.47654 10.8855 0.593108 10.931C0.709676 10.9766 0.834612 11 0.960784 11C1.08696 11 1.21189 10.9766 1.32846 10.931C1.44503 10.8855 1.55094 10.8188 1.64016 10.7347C1.72938 10.6506 1.80015 10.5507 1.84843 10.4408C1.89672 10.3309 1.92157 10.2131 1.92157 10.0941C1.92157 9.97516 1.89672 9.85736 1.84843 9.74745C1.80015 9.63754 1.72938 9.53768 1.64016 9.45356C1.55094 9.36944 1.44503 9.30272 1.32846 9.25719C1.21189 9.21167 1.08696 9.18824 0.960784 9.18824C0.834612 9.18824 0.709676 9.21167 0.593108 9.25719C0.47654 9.30272 0.370624 9.36944 0.281407 9.45356C0.19219 9.53768 0.121419 9.63754 0.0731354 9.74745C0.0248515 9.85736 -1.88011e-09 9.97516 0 10.0941Z" fill="#676767"/>
</svg>
