<svg width="13" height="12" viewBox="0 0 13 12" fill="none" xmlns="http://www.w3.org/2000/svg">
<path d="M0 10.5762H12.087V11.5834H0V10.5762Z" fill="#676767"/>
<path d="M6.04392 9.06522C5.10893 9.06522 4.21224 8.6938 3.55111 8.03266C2.88998 7.37153 2.51855 6.47484 2.51855 5.53986V0H3.5258V5.53986C3.5258 6.2077 3.7911 6.84819 4.26334 7.32043C4.73558 7.79267 5.37607 8.05797 6.04392 8.05797C6.71176 8.05797 7.35226 7.79267 7.82449 7.32043C8.29673 6.84819 8.56203 6.2077 8.56203 5.53986V0H9.56928V5.53986C9.56928 6.47484 9.19786 7.37153 8.53672 8.03266C7.87559 8.6938 6.9789 9.06522 6.04392 9.06522Z" fill="#676767"/>
</svg>
